<?xml version="1.0" standalone="no"?>
<!DOCTYPE svg PUBLIC "-//W3C//DTD SVG 20010904//EN"
 "http://www.w3.org/TR/2001/REC-SVG-20010904/DTD/svg10.dtd">
<svg version="1.0" xmlns="http://www.w3.org/2000/svg"
 width="512.000000pt" height="512.000000pt" viewBox="0 0 512.000000 512.000000"
 preserveAspectRatio="xMidYMid meet">

<g transform="translate(0.000000,512.000000) scale(0.100000,-0.100000)"
fill="#000000" stroke="none">
<path d="M2474 3795 c-18 -9 -41 -26 -52 -38 -38 -41 -892 -1621 -892 -1650 0
-43 28 -87 65 -103 52 -21 209 -18 261 5 46 21 63 42 124 159 l44 82 565 -2
564 -3 49 -90 c81 -149 106 -165 248 -165 103 0 149 15 177 56 37 58 34 65
-304 684 -176 322 -373 683 -438 803 -145 269 -147 271 -284 275 -72 2 -104
-1 -127 -13z m299 -845 c97 -182 177 -332 177 -335 0 -3 -162 -5 -361 -5 -283
0 -360 3 -357 13 6 24 350 657 357 657 4 0 86 -149 184 -330z"/>
<path d="M1773 1716 c-4 -8 -7 -109 -5 -225 l3 -211 26 -6 c56 -15 58 -7 58
232 l0 219 -37 3 c-24 2 -39 -2 -45 -12z"/>
<path d="M2516 1659 c-3 -40 -8 -74 -9 -76 -2 -1 -17 3 -34 9 -67 25 -162 -33
-184 -114 -35 -130 92 -252 203 -194 23 12 29 12 39 0 7 -9 25 -14 43 -12 l31
3 0 225 0 225 -41 3 -41 3 -7 -72z m-18 -176 c34 -46 -2 -123 -58 -123 -59 0
-87 94 -39 133 27 22 77 17 97 -10z"/>
<path d="M1435 1593 c-64 -17 -115 -90 -115 -166 0 -111 128 -192 224 -142 27
14 31 14 38 0 11 -18 59 -20 76 -3 14 14 17 275 3 297 -12 19 -72 16 -86 -3
-10 -14 -13 -14 -27 0 -16 17 -80 26 -113 17z m90 -108 c15 -14 25 -36 25 -51
0 -36 -36 -74 -71 -74 -33 0 -69 41 -69 77 0 29 42 73 70 73 12 0 32 -11 45
-25z"/>
<path d="M2046 1590 c-64 -20 -106 -83 -106 -161 0 -61 25 -108 74 -138 45
-28 129 -28 174 -1 37 23 40 39 12 65 -17 15 -24 16 -46 7 -37 -17 -79 -15
-97 6 -10 10 -17 22 -17 25 0 4 50 7 111 7 l112 0 -5 44 c-13 111 -109 177
-212 146z m99 -100 c18 -20 17 -20 -43 -20 -62 0 -77 10 -44 29 28 17 68 13
87 -9z"/>
<path d="M2670 1590 l-25 -6 -3 -143 c-3 -156 1 -171 49 -171 39 0 49 24 49
117 0 43 4 83 8 89 10 16 48 34 70 34 37 0 45 66 10 79 -26 9 -78 -5 -78 -22
0 -6 -6 -4 -12 5 -17 20 -38 26 -68 18z"/>
<path d="M2930 1578 c-62 -32 -92 -85 -87 -156 4 -59 25 -94 78 -130 28 -20
44 -23 91 -20 131 9 198 142 125 248 -52 77 -129 98 -207 58z m114 -89 c52
-41 23 -129 -43 -129 -35 0 -71 40 -71 77 0 29 41 73 68 73 11 0 31 -9 46 -21z"/>
<path d="M3290 1589 c-61 -25 -100 -85 -100 -155 0 -116 115 -198 210 -149 28
15 30 14 30 -4 0 -28 -30 -60 -66 -70 -23 -7 -42 -4 -77 11 -65 28 -97 11 -83
-45 13 -52 153 -80 223 -44 36 19 81 69 88 100 3 12 4 96 3 187 l-3 165 -42 3
c-24 2 -43 -1 -43 -7 0 -6 -14 -4 -35 5 -39 16 -69 17 -105 3z m105 -104 c14
-13 25 -36 25 -50 0 -32 -41 -75 -71 -75 -60 0 -90 82 -47 127 28 30 63 29 93
-2z"/>
<path d="M3692 1593 c-36 -7 -98 -73 -112 -118 -16 -54 -1 -110 42 -154 39
-40 66 -51 120 -51 91 0 160 68 160 158 0 117 -90 188 -210 165z m93 -108 c69
-68 -21 -170 -92 -103 -33 30 -31 80 3 107 35 27 59 26 89 -4z"/>
</g>
</svg>
